<?xml version="1.0" encoding="utf-8"?>
<!-- Generator: Adobe Illustrator 18.0.0, SVG Export Plug-In . SVG Version: 6.00 Build 0)  -->
<!DOCTYPE svg PUBLIC "-//W3C//DTD SVG 1.1//EN" "http://www.w3.org/Graphics/SVG/1.1/DTD/svg11.dtd">
<svg version="1.1" id="Layer_1" xmlns="http://www.w3.org/2000/svg" xmlns:xlink="http://www.w3.org/1999/xlink" x="0px" y="0px"
	 viewBox="131.2 -479.7 846.4 846.4" enable-background="new 131.2 -479.7 846.4 846.4" xml:space="preserve">
<g>
	<circle fill="none" stroke="#F7F7F7" stroke-width="2" stroke-miterlimit="10" cx="9336.9" cy="322.7" r="219.9"/>
	<polyline fill="none" stroke="#F7F7F7" stroke-miterlimit="10" points="9336.9,102.8 9336.9,322.7 9517.7,230.5 	"/>
</g>
<g>
	<line fill="none" stroke="#F7F7F7" stroke-width="2" stroke-miterlimit="10" x1="4762.4" y1="113.5" x2="4762.4" y2="489.4"/>
	<line fill="none" stroke="#F7F7F7" stroke-width="2" stroke-miterlimit="10" x1="4570.9" y1="301.4" x2="4950.4" y2="301.4"/>
</g>
<g>
	<path fill="#E4F7F7" d="M932.6-56.5c0-208.5-169.6-378.2-378.2-378.2c-208.5,0-378.2,169.6-378.2,378.2s169.6,378.2,378.2,378.2
		C763,321.7,932.6,152,932.6-56.5z"/>
	<path fill="#6FD8D5" d="M554.4-479.7c-233.4,0-423.2,189.8-423.2,423.2s189.8,423.2,423.2,423.2c233.4,0,423.2-189.8,423.2-423.2
		S787.8-479.7,554.4-479.7z M176.3-56.5c0-208.5,169.6-378.2,378.2-378.2C763-434.6,932.6-265,932.6-56.5S763,321.7,554.4,321.7
		C345.9,321.7,176.3,152,176.3-56.5z"/>
</g>
<g>
	<path fill="#323A4C" d="M342.5,123.9h429.3c14.1,0,25.6-11.5,25.6-25.6v-295.8c0-14.1-11.5-25.6-25.6-25.6H342.5
		c-14.1,0-25.6,11.5-25.6,25.6V98.3C317,112.5,328.4,123.9,342.5,123.9z"/>
	<path fill="#FFFFFF" d="M366.6-223.5l55,83h69.5l-57.5-83C433.6-223.5,364.1-226.4,366.6-223.5z"/>
	<path fill="#FFFFFF" d="M509-223.5l55,83h69.5l-57.5-83C576-223.5,506.5-226.4,509-223.5z"/>
	<path fill="#FFFFFF" d="M651.3-223.5l55,83h69.5l-57.5-83C718.4-223.5,648.8-226.4,651.3-223.5z"/>
	<polygon fill="#FFFFFF" points="316.7,-143.4 355.7,-143.4 315.6,-202.7 	"/>
	<g>
		<path fill="#F0F2F2" d="M521.4,54.6V-83.3h41c5.7,0.1,11.2,0.8,16.7,2.2c5.4,1.4,10.3,3.6,14.5,6.6c4.2,3,7.6,6.8,10.1,11.4
			c2.5,4.6,3.8,10.1,3.7,16.6c-0.1,3.6-0.6,6.9-1.7,9.8c-1.1,3-2.6,5.6-4.5,8c-1.9,2.4-4.2,4.4-6.8,6.2c-2.6,1.8-5.3,3.3-8.2,4.5
			c3.7,1.1,7,2.6,10.1,4.6s5.7,4.4,7.9,7.2c2.2,2.8,3.9,6,5.2,9.5c1.2,3.5,1.8,7.4,1.8,11.5c0.1,6.4-1.2,12.1-3.7,17
			c-2.5,4.9-5.9,9-10.1,12.4c-4.2,3.3-9.1,5.9-14.6,7.6c-5.5,1.8-11.2,2.7-17.1,2.7H521.4z M539-24.5h24.4c3.3-0.1,6.5-0.6,9.7-1.6
			c3.2-1,6-2.4,8.4-4.3c2.5-1.9,4.4-4.1,6-6.9c1.5-2.7,2.3-5.9,2.3-9.5c0-3.8-0.7-7.1-2.2-9.8c-1.5-2.7-3.5-4.9-6-6.7
			c-2.5-1.7-5.4-3-8.6-3.8c-3.3-0.8-6.6-1.3-10-1.3H539V-24.5z M539-9.9v49.6h27c3.7-0.1,7.1-0.7,10.4-1.8c3.3-1.2,6.2-2.8,8.7-4.9
			c2.5-2.1,4.5-4.6,6-7.7c1.5-3,2.2-6.5,2.2-10.3c0.1-3.9-0.6-7.4-1.9-10.4c-1.4-3-3.2-5.6-5.6-7.7c-2.4-2.1-5.2-3.7-8.4-4.9
			c-3.2-1.1-6.7-1.8-10.4-1.9H539z"/>
	</g>
</g>
</svg>
