<?xml version="1.0" encoding="utf-8"?>
<!-- Generator: Adobe Illustrator 18.0.0, SVG Export Plug-In . SVG Version: 6.00 Build 0)  -->
<!DOCTYPE svg PUBLIC "-//W3C//DTD SVG 1.1//EN" "http://www.w3.org/Graphics/SVG/1.1/DTD/svg11.dtd">
<svg version="1.1" id="Layer_1" xmlns="http://www.w3.org/2000/svg" xmlns:xlink="http://www.w3.org/1999/xlink" x="0px" y="0px"
	 viewBox="131.2 116.4 250.4 250.4" enable-background="new 131.2 116.4 250.4 250.4" xml:space="preserve">
<g>
	<circle fill="none" stroke="#F7F7F7" stroke-width="2" stroke-miterlimit="10" cx="9336.9" cy="322.7" r="219.9"/>
	<polyline fill="none" stroke="#F7F7F7" stroke-miterlimit="10" points="9336.9,102.8 9336.9,322.7 9517.7,230.5 	"/>
</g>
<g>
	<line fill="none" stroke="#F7F7F7" stroke-width="2" stroke-miterlimit="10" x1="4762.4" y1="113.5" x2="4762.4" y2="489.4"/>
	<line fill="none" stroke="#F7F7F7" stroke-width="2" stroke-miterlimit="10" x1="4570.9" y1="301.4" x2="4950.4" y2="301.4"/>
</g>
<g>
	<path fill="#E4F7F7" d="M368.3,241.5c0-61.7-50.2-111.9-111.9-111.9c-61.7,0-111.9,50.2-111.9,111.9s50.2,111.9,111.9,111.9
		C318.1,353.4,368.3,303.2,368.3,241.5z"/>
	<path fill="#6FD8D5" d="M256.4,116.4c-69,0-125.2,56.2-125.2,125.2s56.2,125.2,125.2,125.2c69,0,125.2-56.2,125.2-125.2
		S325.4,116.4,256.4,116.4z M144.5,241.5c0-61.7,50.2-111.9,111.9-111.9c61.7,0,111.9,50.2,111.9,111.9s-50.2,111.9-111.9,111.9
		C194.7,353.4,144.5,303.2,144.5,241.5z"/>
</g>
<g>
	<path fill="#323A4C" d="M192.5,294.9H322c3.5,0,6.3-2.8,6.3-6.3v-90.1c0-3.5-2.8-6.3-6.3-6.3H192.5c-3.5,0-6.3,2.8-6.3,6.3v90.1
		C186.2,292.1,189,294.9,192.5,294.9z"/>
	<path fill="#FFFFFF" d="M200.8,192.1l16.3,24.6h20.6l-17-24.6C220.7,192.1,200.1,191.3,200.8,192.1z"/>
	<path fill="#FFFFFF" d="M243,192.1l16.3,24.6h20.6l-17-24.6C262.8,192.1,242.2,191.3,243,192.1z"/>
	<path fill="#FFFFFF" d="M285.1,192.1l16.3,24.6h20.6l-17-24.6C304.9,192.1,284.3,191.3,285.1,192.1z"/>
	<polygon fill="#FFFFFF" points="186.1,215.8 197.6,215.8 185.8,198.3 	"/>
	<g>
		<path fill="#F0F2F2" d="M249.4,274.4v-40.8h12.1c1.7,0,3.3,0.2,4.9,0.7s3,1.1,4.3,1.9c1.2,0.9,2.2,2,3,3.4c0.7,1.4,1.1,3,1.1,4.9
			c0,1.1-0.2,2-0.5,2.9c-0.3,0.9-0.8,1.7-1.3,2.4c-0.6,0.7-1.2,1.3-2,1.8c-0.8,0.5-1.6,1-2.4,1.3c1.1,0.3,2.1,0.8,3,1.4
			s1.7,1.3,2.3,2.1c0.7,0.8,1.2,1.8,1.5,2.8c0.4,1,0.5,2.2,0.5,3.4c0,1.9-0.3,3.6-1.1,5c-0.7,1.5-1.7,2.7-3,3.7
			c-1.3,1-2.7,1.7-4.3,2.3c-1.6,0.5-3.3,0.8-5.1,0.8H249.4z M254.6,251h7.2c1,0,1.9-0.2,2.9-0.5c0.9-0.3,1.8-0.7,2.5-1.3
			c0.7-0.6,1.3-1.2,1.8-2c0.4-0.8,0.7-1.7,0.7-2.8c0-1.1-0.2-2.1-0.7-2.9s-1-1.5-1.8-2c-0.7-0.5-1.6-0.9-2.5-1.1
			c-1-0.2-1.9-0.4-3-0.4h-7.1V251z M254.6,255.3V270h8c1.1,0,2.1-0.2,3.1-0.5c1-0.3,1.8-0.8,2.6-1.4c0.7-0.6,1.3-1.4,1.8-2.3
			c0.4-0.9,0.7-1.9,0.7-3.1c0-1.2-0.2-2.2-0.6-3.1c-0.4-0.9-1-1.7-1.7-2.3c-0.7-0.6-1.5-1.1-2.5-1.4s-2-0.5-3.1-0.6H254.6z"/>
	</g>
</g>
</svg>
